<?xml version="1.0" encoding="UTF-8"?>
<svg width="260px" height="14px" viewBox="0 0 260 14" version="1.1" xmlns="http://www.w3.org/2000/svg" xmlns:xlink="http://www.w3.org/1999/xlink">
    <title>ENGAGE • ENHANCE • E</title>
    <g id="Unique-Pages" stroke="none" stroke-width="1" fill="none" fill-rule="evenodd">
        <g id="Styleguide" transform="translate(-510.000000, -10974.000000)" fill-rule="nonzero">
            <g id="Footer" transform="translate(0.000000, 10786.000000)">
                <g id="ENGAGE-•-ENHANCE-•-E" transform="translate(510.692000, 188.256000)">
                    <path d="M7.974,12.744 C8.094,12.744 8.154,12.684 8.154,12.564 L8.154,12.564 L8.154,11.808 C8.154,11.688 8.094,11.628 7.974,11.628 L7.974,11.628 L1.35,11.628 C1.302,11.628 1.278,11.604 1.278,11.556 L1.278,11.556 L1.278,7.038 C1.278,6.99 1.302,6.966 1.35,6.966 L1.35,6.966 L5.994,6.966 C6.114,6.966 6.174,6.906 6.174,6.786 L6.174,6.786 L6.174,6.03 C6.174,5.91 6.114,5.85 5.994,5.85 L5.994,5.85 L1.35,5.85 C1.302,5.85 1.278,5.826 1.278,5.778 L1.278,5.778 L1.278,1.332 C1.278,1.284 1.302,1.26 1.35,1.26 L1.35,1.26 L7.974,1.26 C8.094,1.26 8.154,1.2 8.154,1.08 L8.154,1.08 L8.154,0.324 C8.154,0.204 8.094,0.144 7.974,0.144 L7.974,0.144 L0.18,0.144 C0.06,0.144 1.36424205e-12,0.204 1.36424205e-12,0.324 L1.36424205e-12,0.324 L1.36424205e-12,12.564 C1.36424205e-12,12.684 0.06,12.744 0.18,12.744 L0.18,12.744 L7.974,12.744 Z M13.488,12.744 C13.608,12.744 13.668,12.684 13.668,12.564 L13.668,12.564 L13.65,2.646 C13.65,2.61 13.662,2.589 13.686,2.583 C13.71,2.577 13.728,2.592 13.74,2.628 L13.74,2.628 L19.878,12.618 C19.938,12.702 20.01,12.744 20.094,12.744 L20.094,12.744 L20.994,12.744 C21.114,12.744 21.174,12.684 21.174,12.564 L21.174,12.564 L21.174,0.324 C21.174,0.204 21.114,0.144 20.994,0.144 L20.994,0.144 L20.076,0.144 C19.956,0.144 19.896,0.204 19.896,0.324 L19.896,0.324 L19.914,10.242 C19.914,10.278 19.902,10.299 19.878,10.305 C19.854,10.311 19.836,10.296 19.824,10.26 L19.824,10.26 L13.686,0.27 C13.626,0.186 13.554,0.144 13.47,0.144 L13.47,0.144 L12.57,0.144 C12.45,0.144 12.39,0.204 12.39,0.324 L12.39,0.324 L12.39,12.564 C12.39,12.684 12.45,12.744 12.57,12.744 L12.57,12.744 L13.488,12.744 Z" id="EN" fill="#B8995A" transform="translate(10.587000, 6.444000) rotate(-360.000000) translate(-10.587000, -6.444000) "></path>
                    <path d="M29.892,12.888 C31.176,12.888 32.199,12.528 32.961,11.808 C33.723,11.088 34.104,10.086 34.104,8.802 L34.104,8.802 L34.104,6.48 C34.104,6.36 34.044,6.3 33.924,6.3 L33.924,6.3 L30.108,6.3 C29.988,6.3 29.928,6.36 29.928,6.48 L29.928,6.48 L29.928,7.236 C29.928,7.356 29.988,7.416 30.108,7.416 L30.108,7.416 L32.754,7.416 C32.802,7.416 32.826,7.44 32.826,7.488 L32.826,7.488 L32.826,9.126 C32.826,9.93 32.565,10.572 32.043,11.052 C31.521,11.532 30.822,11.772 29.946,11.772 C29.046,11.772 28.32,11.514 27.768,10.998 C27.216,10.482 26.94,9.804 26.94,8.964 L26.94,8.964 L26.94,3.924 C26.94,3.084 27.21,2.406 27.75,1.89 C28.29,1.374 29.004,1.116 29.892,1.116 C30.78,1.116 31.491,1.368 32.025,1.872 C32.559,2.376 32.826,3.03 32.826,3.834 L32.826,3.834 L32.826,4.05 C32.826,4.17 32.886,4.23 33.006,4.23 L33.006,4.23 L33.924,4.23 C34.044,4.23 34.104,4.17 34.104,4.05 L34.104,4.05 L34.104,3.816 C34.104,3.084 33.93,2.427 33.582,1.845 C33.234,1.263 32.739,0.81 32.097,0.486 C31.455,0.162 30.72,1.32160949e-12 29.892,1.32160949e-12 C29.052,1.32160949e-12 28.314,0.165 27.678,0.495 C27.042,0.825 26.547,1.29 26.193,1.89 C25.839,2.49 25.662,3.18 25.662,3.96 L25.662,3.96 L25.662,8.928 C25.662,9.708 25.839,10.398 26.193,10.998 C26.547,11.598 27.042,12.063 27.678,12.393 C28.314,12.723 29.052,12.888 29.892,12.888 Z M38.646,12.744 C38.754,12.744 38.826,12.696 38.862,12.6 L38.862,12.6 L39.582,10.332 C39.594,10.296 39.618,10.278 39.654,10.278 L39.654,10.278 L45.036,10.278 C45.072,10.278 45.096,10.296 45.108,10.332 L45.108,10.332 L45.828,12.6 C45.864,12.696 45.936,12.744 46.044,12.744 L46.044,12.744 L47.016,12.744 C47.124,12.744 47.178,12.702 47.178,12.618 L47.178,12.618 L47.16,12.546 L43.164,0.288 C43.128,0.192 43.056,0.144 42.948,0.144 L42.948,0.144 L41.724,0.144 C41.616,0.144 41.544,0.192 41.508,0.288 L41.508,0.288 L37.53,12.546 C37.494,12.678 37.542,12.744 37.674,12.744 L37.674,12.744 L38.646,12.744 Z M44.658,9.234 L40.014,9.234 C39.99,9.234 39.969,9.225 39.951,9.207 C39.933,9.189 39.93,9.168 39.942,9.144 L39.942,9.144 L42.282,1.8 C42.294,1.776 42.312,1.764 42.336,1.764 C42.36,1.764 42.378,1.776 42.39,1.8 L42.39,1.8 L44.73,9.144 C44.742,9.168 44.739,9.189 44.721,9.207 C44.703,9.225 44.682,9.234 44.658,9.234 L44.658,9.234 Z M54.618,12.888 C55.902,12.888 56.925,12.528 57.687,11.808 C58.449,11.088 58.83,10.086 58.83,8.802 L58.83,8.802 L58.83,6.48 C58.83,6.36 58.77,6.3 58.65,6.3 L58.65,6.3 L54.834,6.3 C54.714,6.3 54.654,6.36 54.654,6.48 L54.654,6.48 L54.654,7.236 C54.654,7.356 54.714,7.416 54.834,7.416 L54.834,7.416 L57.48,7.416 C57.528,7.416 57.552,7.44 57.552,7.488 L57.552,7.488 L57.552,9.126 C57.552,9.93 57.291,10.572 56.769,11.052 C56.247,11.532 55.548,11.772 54.672,11.772 C53.772,11.772 53.046,11.514 52.494,10.998 C51.942,10.482 51.666,9.804 51.666,8.964 L51.666,8.964 L51.666,3.924 C51.666,3.084 51.936,2.406 52.476,1.89 C53.016,1.374 53.73,1.116 54.618,1.116 C55.506,1.116 56.217,1.368 56.751,1.872 C57.285,2.376 57.552,3.03 57.552,3.834 L57.552,3.834 L57.552,4.05 C57.552,4.17 57.612,4.23 57.732,4.23 L57.732,4.23 L58.65,4.23 C58.77,4.23 58.83,4.17 58.83,4.05 L58.83,4.05 L58.83,3.816 C58.83,3.084 58.656,2.427 58.308,1.845 C57.96,1.263 57.465,0.81 56.823,0.486 C56.181,0.162 55.446,1.32160949e-12 54.618,1.32160949e-12 C53.778,1.32160949e-12 53.04,0.165 52.404,0.495 C51.768,0.825 51.273,1.29 50.919,1.89 C50.565,2.49 50.388,3.18 50.388,3.96 L50.388,3.96 L50.388,8.928 C50.388,9.708 50.565,10.398 50.919,10.998 C51.273,11.598 51.768,12.063 52.404,12.393 C53.04,12.723 53.778,12.888 54.618,12.888 Z M71.292,12.744 C71.412,12.744 71.472,12.684 71.472,12.564 L71.472,12.564 L71.472,11.808 C71.472,11.688 71.412,11.628 71.292,11.628 L71.292,11.628 L64.668,11.628 C64.62,11.628 64.596,11.604 64.596,11.556 L64.596,11.556 L64.596,7.038 C64.596,6.99 64.62,6.966 64.668,6.966 L64.668,6.966 L69.312,6.966 C69.432,6.966 69.492,6.906 69.492,6.786 L69.492,6.786 L69.492,6.03 C69.492,5.91 69.432,5.85 69.312,5.85 L69.312,5.85 L64.668,5.85 C64.62,5.85 64.596,5.826 64.596,5.778 L64.596,5.778 L64.596,1.332 C64.596,1.284 64.62,1.26 64.668,1.26 L64.668,1.26 L71.292,1.26 C71.412,1.26 71.472,1.2 71.472,1.08 L71.472,1.08 L71.472,0.324 C71.472,0.204 71.412,0.144 71.292,0.144 L71.292,0.144 L63.498,0.144 C63.378,0.144 63.318,0.204 63.318,0.324 L63.318,0.324 L63.318,12.564 C63.318,12.684 63.378,12.744 63.498,12.744 L63.498,12.744 L71.292,12.744 Z M81.906,10.026 C82.47,10.026 82.956,9.819 83.364,9.405 C83.772,8.991 83.976,8.502 83.976,7.938 C83.976,7.362 83.772,6.873 83.364,6.471 C82.956,6.069 82.47,5.868 81.906,5.868 C81.33,5.868 80.838,6.069 80.43,6.471 C80.022,6.873 79.818,7.362 79.818,7.938 C79.818,8.502 80.022,8.991 80.43,9.405 C80.838,9.819 81.33,10.026 81.906,10.026 Z" id="GAGE•" fill="#FFFFFF" transform="translate(54.819000, 6.444000) rotate(-360.000000) translate(-54.819000, -6.444000) "></path>
                    <path d="M100.944,12.744 C101.064,12.744 101.124,12.684 101.124,12.564 L101.124,12.564 L101.124,11.808 C101.124,11.688 101.064,11.628 100.944,11.628 L100.944,11.628 L94.32,11.628 C94.272,11.628 94.248,11.604 94.248,11.556 L94.248,11.556 L94.248,7.038 C94.248,6.99 94.272,6.966 94.32,6.966 L94.32,6.966 L98.964,6.966 C99.084,6.966 99.144,6.906 99.144,6.786 L99.144,6.786 L99.144,6.03 C99.144,5.91 99.084,5.85 98.964,5.85 L98.964,5.85 L94.32,5.85 C94.272,5.85 94.248,5.826 94.248,5.778 L94.248,5.778 L94.248,1.332 C94.248,1.284 94.272,1.26 94.32,1.26 L94.32,1.26 L100.944,1.26 C101.064,1.26 101.124,1.2 101.124,1.08 L101.124,1.08 L101.124,0.324 C101.124,0.204 101.064,0.144 100.944,0.144 L100.944,0.144 L93.15,0.144 C93.03,0.144 92.97,0.204 92.97,0.324 L92.97,0.324 L92.97,12.564 C92.97,12.684 93.03,12.744 93.15,12.744 L93.15,12.744 L100.944,12.744 Z M106.458,12.744 C106.578,12.744 106.638,12.684 106.638,12.564 L106.638,12.564 L106.62,2.646 C106.62,2.61 106.632,2.589 106.656,2.583 C106.68,2.577 106.698,2.592 106.71,2.628 L106.71,2.628 L112.848,12.618 C112.908,12.702 112.98,12.744 113.064,12.744 L113.064,12.744 L113.964,12.744 C114.084,12.744 114.144,12.684 114.144,12.564 L114.144,12.564 L114.144,0.324 C114.144,0.204 114.084,0.144 113.964,0.144 L113.964,0.144 L113.046,0.144 C112.926,0.144 112.866,0.204 112.866,0.324 L112.866,0.324 L112.884,10.242 C112.884,10.278 112.872,10.299 112.848,10.305 C112.824,10.311 112.806,10.296 112.794,10.26 L112.794,10.26 L106.656,0.27 C106.596,0.186 106.524,0.144 106.44,0.144 L106.44,0.144 L105.54,0.144 C105.42,0.144 105.36,0.204 105.36,0.324 L105.36,0.324 L105.36,12.564 C105.36,12.684 105.42,12.744 105.54,12.744 L105.54,12.744 L106.458,12.744 Z" id="EN" fill="#B8995A" transform="translate(103.557000, 6.444000) rotate(-360.000000) translate(-103.557000, -6.444000) "></path>
                    <path d="M120.126,12.744 C120.246,12.744 120.306,12.684 120.306,12.564 L120.306,12.564 L120.306,7.038 C120.306,6.99 120.33,6.966 120.378,6.966 L120.378,6.966 L126.12,6.966 C126.168,6.966 126.192,6.99 126.192,7.038 L126.192,7.038 L126.192,12.564 C126.192,12.684 126.252,12.744 126.372,12.744 L126.372,12.744 L127.29,12.744 C127.41,12.744 127.47,12.684 127.47,12.564 L127.47,12.564 L127.47,0.324 C127.47,0.204 127.41,0.144 127.29,0.144 L127.29,0.144 L126.372,0.144 C126.252,0.144 126.192,0.204 126.192,0.324 L126.192,0.324 L126.192,5.778 C126.192,5.826 126.168,5.85 126.12,5.85 L126.12,5.85 L120.378,5.85 C120.33,5.85 120.306,5.826 120.306,5.778 L120.306,5.778 L120.306,0.324 C120.306,0.204 120.246,0.144 120.126,0.144 L120.126,0.144 L119.208,0.144 C119.088,0.144 119.028,0.204 119.028,0.324 L119.028,0.324 L119.028,12.564 C119.028,12.684 119.088,12.744 119.208,12.744 L119.208,12.744 L120.126,12.744 Z M132.498,12.744 C132.606,12.744 132.678,12.696 132.714,12.6 L132.714,12.6 L133.434,10.332 C133.446,10.296 133.47,10.278 133.506,10.278 L133.506,10.278 L138.888,10.278 C138.924,10.278 138.948,10.296 138.96,10.332 L138.96,10.332 L139.68,12.6 C139.716,12.696 139.788,12.744 139.896,12.744 L139.896,12.744 L140.868,12.744 C140.976,12.744 141.03,12.702 141.03,12.618 L141.03,12.618 L141.012,12.546 L137.016,0.288 C136.98,0.192 136.908,0.144 136.8,0.144 L136.8,0.144 L135.576,0.144 C135.468,0.144 135.396,0.192 135.36,0.288 L135.36,0.288 L131.382,12.546 C131.346,12.678 131.394,12.744 131.526,12.744 L131.526,12.744 L132.498,12.744 Z M138.51,9.234 L133.866,9.234 C133.842,9.234 133.821,9.225 133.803,9.207 C133.785,9.189 133.782,9.168 133.794,9.144 L133.794,9.144 L136.134,1.8 C136.146,1.776 136.164,1.764 136.188,1.764 C136.212,1.764 136.23,1.776 136.242,1.8 L136.242,1.8 L138.582,9.144 C138.594,9.168 138.591,9.189 138.573,9.207 C138.555,9.225 138.534,9.234 138.51,9.234 L138.51,9.234 Z M145.95,12.744 C146.07,12.744 146.13,12.684 146.13,12.564 L146.13,12.564 L146.112,2.646 C146.112,2.61 146.124,2.589 146.148,2.583 C146.172,2.577 146.19,2.592 146.202,2.628 L146.202,2.628 L152.34,12.618 C152.4,12.702 152.472,12.744 152.556,12.744 L152.556,12.744 L153.456,12.744 C153.576,12.744 153.636,12.684 153.636,12.564 L153.636,12.564 L153.636,0.324 C153.636,0.204 153.576,0.144 153.456,0.144 L153.456,0.144 L152.538,0.144 C152.418,0.144 152.358,0.204 152.358,0.324 L152.358,0.324 L152.376,10.242 C152.376,10.278 152.364,10.299 152.34,10.305 C152.316,10.311 152.298,10.296 152.286,10.26 L152.286,10.26 L146.148,0.27 C146.088,0.186 146.016,0.144 145.932,0.144 L145.932,0.144 L145.032,0.144 C144.912,0.144 144.852,0.204 144.852,0.324 L144.852,0.324 L144.852,12.564 C144.852,12.684 144.912,12.744 145.032,12.744 L145.032,12.744 L145.95,12.744 Z M162.354,12.906 C163.194,12.906 163.932,12.744 164.568,12.42 C165.204,12.096 165.699,11.637 166.053,11.043 C166.407,10.449 166.584,9.762 166.584,8.982 C166.584,8.874 166.524,8.82 166.404,8.82 L166.404,8.82 L165.486,8.766 C165.366,8.766 165.306,8.82 165.306,8.928 L165.306,8.928 L165.306,8.964 C165.306,9.816 165.036,10.497 164.496,11.007 C163.956,11.517 163.242,11.772 162.354,11.772 C161.466,11.772 160.752,11.514 160.212,10.998 C159.672,10.482 159.402,9.804 159.402,8.964 L159.402,8.964 L159.402,3.924 C159.402,3.084 159.672,2.406 160.212,1.89 C160.752,1.374 161.466,1.116 162.354,1.116 C163.242,1.116 163.956,1.371 164.496,1.881 C165.036,2.391 165.306,3.072 165.306,3.924 L165.306,3.924 L165.306,3.978 C165.306,4.086 165.366,4.14 165.486,4.14 L165.486,4.14 L166.404,4.086 C166.452,4.086 166.494,4.068 166.53,4.032 C166.566,3.996 166.584,3.948 166.584,3.888 C166.584,3.12 166.407,2.442 166.053,1.854 C165.699,1.266 165.204,0.81 164.568,0.486 C163.932,0.162 163.194,1.33582034e-12 162.354,1.33582034e-12 C161.514,1.33582034e-12 160.776,0.165 160.14,0.495 C159.504,0.825 159.009,1.29 158.655,1.89 C158.301,2.49 158.124,3.18 158.124,3.96 L158.124,3.96 L158.124,8.91 C158.124,9.702 158.301,10.401 158.655,11.007 C159.009,11.613 159.504,12.081 160.14,12.411 C160.776,12.741 161.514,12.906 162.354,12.906 Z M178.92,12.744 C179.04,12.744 179.1,12.684 179.1,12.564 L179.1,12.564 L179.1,11.808 C179.1,11.688 179.04,11.628 178.92,11.628 L178.92,11.628 L172.296,11.628 C172.248,11.628 172.224,11.604 172.224,11.556 L172.224,11.556 L172.224,7.038 C172.224,6.99 172.248,6.966 172.296,6.966 L172.296,6.966 L176.94,6.966 C177.06,6.966 177.12,6.906 177.12,6.786 L177.12,6.786 L177.12,6.03 C177.12,5.91 177.06,5.85 176.94,5.85 L176.94,5.85 L172.296,5.85 C172.248,5.85 172.224,5.826 172.224,5.778 L172.224,5.778 L172.224,1.332 C172.224,1.284 172.248,1.26 172.296,1.26 L172.296,1.26 L178.92,1.26 C179.04,1.26 179.1,1.2 179.1,1.08 L179.1,1.08 L179.1,0.324 C179.1,0.204 179.04,0.144 178.92,0.144 L178.92,0.144 L171.126,0.144 C171.006,0.144 170.946,0.204 170.946,0.324 L170.946,0.324 L170.946,12.564 C170.946,12.684 171.006,12.744 171.126,12.744 L171.126,12.744 L178.92,12.744 Z M189.534,10.026 C190.098,10.026 190.584,9.819 190.992,9.405 C191.4,8.991 191.604,8.502 191.604,7.938 C191.604,7.362 191.4,6.873 190.992,6.471 C190.584,6.069 190.098,5.868 189.534,5.868 C188.958,5.868 188.466,6.069 188.058,6.471 C187.65,6.873 187.446,7.362 187.446,7.938 C187.446,8.502 187.65,8.991 188.058,9.405 C188.466,9.819 188.958,10.026 189.534,10.026 Z" id="HANCE•" fill="#FFFFFF" transform="translate(155.316000, 6.453000) rotate(-360.000000) translate(-155.316000, -6.453000) "></path>
                    <path d="M208.572,12.744 C208.692,12.744 208.752,12.684 208.752,12.564 L208.752,12.564 L208.752,11.808 C208.752,11.688 208.692,11.628 208.572,11.628 L208.572,11.628 L201.948,11.628 C201.9,11.628 201.876,11.604 201.876,11.556 L201.876,11.556 L201.876,7.038 C201.876,6.99 201.9,6.966 201.948,6.966 L201.948,6.966 L206.592,6.966 C206.712,6.966 206.772,6.906 206.772,6.786 L206.772,6.786 L206.772,6.03 C206.772,5.91 206.712,5.85 206.592,5.85 L206.592,5.85 L201.948,5.85 C201.9,5.85 201.876,5.826 201.876,5.778 L201.876,5.778 L201.876,1.332 C201.876,1.284 201.9,1.26 201.948,1.26 L201.948,1.26 L208.572,1.26 C208.692,1.26 208.752,1.2 208.752,1.08 L208.752,1.08 L208.752,0.324 C208.752,0.204 208.692,0.144 208.572,0.144 L208.572,0.144 L200.778,0.144 C200.658,0.144 200.598,0.204 200.598,0.324 L200.598,0.324 L200.598,12.564 C200.598,12.684 200.658,12.744 200.778,12.744 L200.778,12.744 L208.572,12.744 Z M214.086,12.744 C214.206,12.744 214.266,12.684 214.266,12.564 L214.266,12.564 L214.248,2.646 C214.248,2.61 214.26,2.589 214.284,2.583 C214.308,2.577 214.326,2.592 214.338,2.628 L214.338,2.628 L220.476,12.618 C220.536,12.702 220.608,12.744 220.692,12.744 L220.692,12.744 L221.592,12.744 C221.712,12.744 221.772,12.684 221.772,12.564 L221.772,12.564 L221.772,0.324 C221.772,0.204 221.712,0.144 221.592,0.144 L221.592,0.144 L220.674,0.144 C220.554,0.144 220.494,0.204 220.494,0.324 L220.494,0.324 L220.512,10.242 C220.512,10.278 220.5,10.299 220.476,10.305 C220.452,10.311 220.434,10.296 220.422,10.26 L220.422,10.26 L214.284,0.27 C214.224,0.186 214.152,0.144 214.068,0.144 L214.068,0.144 L213.168,0.144 C213.048,0.144 212.988,0.204 212.988,0.324 L212.988,0.324 L212.988,12.564 C212.988,12.684 213.048,12.744 213.168,12.744 L213.168,12.744 L214.086,12.744 Z" id="EN" fill="#B8995A" transform="translate(211.185000, 6.444000) rotate(-360.000000) translate(-211.185000, -6.444000) "></path>
                    <path d="M229.572,12.888 C230.376,12.888 231.087,12.732 231.705,12.42 C232.323,12.108 232.803,11.667 233.145,11.097 C233.487,10.527 233.658,9.87 233.658,9.126 L233.658,9.126 L233.658,0.324 C233.658,0.204 233.598,0.144 233.478,0.144 L233.478,0.144 L232.56,0.144 C232.44,0.144 232.38,0.204 232.38,0.324 L232.38,0.324 L232.38,9.126 C232.38,9.918 232.122,10.557 231.606,11.043 C231.09,11.529 230.412,11.772 229.572,11.772 C228.72,11.772 228.039,11.529 227.529,11.043 C227.019,10.557 226.764,9.918 226.764,9.126 L226.764,9.126 L226.764,7.758 C226.764,7.638 226.704,7.578 226.584,7.578 L226.584,7.578 L225.666,7.578 C225.546,7.578 225.486,7.638 225.486,7.758 L225.486,7.758 L225.486,9.126 C225.486,9.87 225.654,10.527 225.99,11.097 C226.326,11.667 226.803,12.108 227.421,12.42 C228.039,12.732 228.756,12.888 229.572,12.888 Z M242.178,12.888 C243.03,12.888 243.783,12.714 244.437,12.366 C245.091,12.018 245.595,11.529 245.949,10.899 C246.303,10.269 246.48,9.54 246.48,8.712 L246.48,8.712 L246.48,4.176 C246.48,3.348 246.303,2.619 245.949,1.989 C245.595,1.359 245.091,0.87 244.437,0.522 C243.783,0.174 243.03,1.32160949e-12 242.178,1.32160949e-12 C241.326,1.32160949e-12 240.576,0.174 239.928,0.522 C239.28,0.87 238.779,1.359 238.425,1.989 C238.071,2.619 237.894,3.348 237.894,4.176 L237.894,4.176 L237.894,8.712 C237.894,9.54 238.071,10.269 238.425,10.899 C238.779,11.529 239.28,12.018 239.928,12.366 C240.576,12.714 241.326,12.888 242.178,12.888 Z M242.178,11.79 C241.278,11.79 240.552,11.514 240,10.962 C239.448,10.41 239.172,9.678 239.172,8.766 L239.172,8.766 L239.172,4.158 C239.172,3.246 239.448,2.511 240,1.953 C240.552,1.395 241.278,1.116 242.178,1.116 C243.09,1.116 243.822,1.395 244.374,1.953 C244.926,2.511 245.202,3.246 245.202,4.158 L245.202,4.158 L245.202,8.766 C245.202,9.678 244.926,10.41 244.374,10.962 C243.822,11.514 243.09,11.79 242.178,11.79 Z M254.658,12.726 C254.778,12.726 254.838,12.666 254.838,12.546 L254.838,12.546 L254.838,7.218 C254.838,7.17 254.844,7.14 254.856,7.128 L254.856,7.128 L258.6,0.36 C258.636,0.3 258.642,0.249 258.618,0.207 C258.594,0.165 258.546,0.144 258.474,0.144 L258.474,0.144 L257.502,0.144 C257.406,0.144 257.334,0.186 257.286,0.27 L257.286,0.27 L254.244,5.76 C254.232,5.772 254.214,5.778 254.19,5.778 C254.166,5.778 254.148,5.772 254.136,5.76 L254.136,5.76 L251.112,0.27 C251.076,0.186 251.004,0.144 250.896,0.144 L250.896,0.144 L249.924,0.144 C249.816,0.144 249.762,0.18 249.762,0.252 C249.762,0.276 249.774,0.312 249.798,0.36 L249.798,0.36 L253.542,7.128 C253.554,7.14 253.56,7.17 253.56,7.218 L253.56,7.218 L253.56,12.546 C253.56,12.666 253.62,12.726 253.74,12.726 L253.74,12.726 L254.658,12.726 Z" id="JOY" fill="#FFFFFF" transform="translate(242.059200, 6.444000) rotate(-360.000000) translate(-242.059200, -6.444000) "></path>
                </g>
            </g>
        </g>
    </g>
</svg>