<?xml version="1.0" encoding="UTF-8"?>
<svg width="202px" height="49px" viewBox="0 0 202 49" version="1.1" xmlns="http://www.w3.org/2000/svg" xmlns:xlink="http://www.w3.org/1999/xlink">
    <title>Group 20</title>
    <g id="Unique-Pages" stroke="none" stroke-width="1" fill="none" fill-rule="evenodd">
        <g id="Styleguide" transform="translate(-540.000000, -10874.000000)" fill-rule="nonzero">
            <g id="Footer" transform="translate(0.000000, 10786.000000)">
                <g id="Group-20" transform="translate(540.000000, 88.000000)">
                    <g id="ENTRENOUS">
                        <path d="M12.847,20.532 C13.0403333,20.532 13.137,20.4353333 13.137,20.242 L13.137,20.242 L13.137,19.024 C13.137,18.8306667 13.0403333,18.734 12.847,18.734 L12.847,18.734 L2.175,18.734 C2.09766667,18.734 2.059,18.6953333 2.059,18.618 L2.059,18.618 L2.059,11.339 C2.059,11.2616667 2.09766667,11.223 2.175,11.223 L2.175,11.223 L9.657,11.223 C9.85033333,11.223 9.947,11.1263333 9.947,10.933 L9.947,10.933 L9.947,9.715 C9.947,9.52166667 9.85033333,9.425 9.657,9.425 L9.657,9.425 L2.175,9.425 C2.09766667,9.425 2.059,9.38633333 2.059,9.309 L2.059,9.309 L2.059,2.146 C2.059,2.06866667 2.09766667,2.03 2.175,2.03 L2.175,2.03 L12.847,2.03 C13.0403333,2.03 13.137,1.93333333 13.137,1.74 L13.137,1.74 L13.137,0.522 C13.137,0.328666667 13.0403333,0.232 12.847,0.232 L12.847,0.232 L0.29,0.232 C0.0966666667,0.232 -1.10134124e-12,0.328666667 -1.10134124e-12,0.522 L-1.10134124e-12,0.522 L-1.10134124e-12,20.242 C-1.10134124e-12,20.4353333 0.0966666667,20.532 0.29,20.532 L0.29,20.532 L12.847,20.532 Z M24.766922,20.532 C24.9602553,20.532 25.056922,20.4353333 25.056922,20.242 L25.056922,20.242 L25.027922,4.263 C25.027922,4.205 25.0472553,4.17116667 25.085922,4.1615 C25.1245887,4.15183333 25.1535887,4.176 25.172922,4.234 L25.172922,4.234 L35.061922,20.329 C35.1585887,20.4643333 35.2745887,20.532 35.409922,20.532 L35.409922,20.532 L36.859922,20.532 C37.0532553,20.532 37.149922,20.4353333 37.149922,20.242 L37.149922,20.242 L37.149922,0.522 C37.149922,0.328666667 37.0532553,0.232 36.859922,0.232 L36.859922,0.232 L35.380922,0.232 C35.1875887,0.232 35.090922,0.328666667 35.090922,0.522 L35.090922,0.522 L35.119922,16.501 C35.119922,16.559 35.1005887,16.5928333 35.061922,16.6025 C35.0232553,16.6121667 34.9942553,16.588 34.974922,16.53 L34.974922,16.53 L25.085922,0.435 C24.9892553,0.299666667 24.8732553,0.232 24.737922,0.232 L24.737922,0.232 L23.287922,0.232 C23.0945887,0.232 22.997922,0.328666667 22.997922,0.522 L22.997922,0.522 L22.997922,20.242 C22.997922,20.4353333 23.0945887,20.532 23.287922,20.532 L23.287922,20.532 L24.766922,20.532 Z M54.202844,20.532 C54.3961773,20.532 54.492844,20.4353333 54.492844,20.242 L54.492844,20.242 L54.492844,2.175 C54.492844,2.09766667 54.5315107,2.059 54.608844,2.059 L54.608844,2.059 L60.292844,2.059 C60.4861773,2.059 60.582844,1.96233333 60.582844,1.769 L60.582844,1.769 L60.582844,0.522 C60.582844,0.328666667 60.4861773,0.232 60.292844,0.232 L60.292844,0.232 L46.865844,0.232 C46.6725107,0.232 46.575844,0.328666667 46.575844,0.522 L46.575844,0.522 L46.575844,1.769 C46.575844,1.96233333 46.6725107,2.059 46.865844,2.059 L46.865844,2.059 L52.317844,2.059 C52.3951773,2.059 52.433844,2.09766667 52.433844,2.175 L52.433844,2.175 L52.433844,20.242 C52.433844,20.4353333 52.5305107,20.532 52.723844,20.532 L52.723844,20.532 L54.202844,20.532 Z M71.777766,20.532 C71.9710993,20.532 72.067766,20.4353333 72.067766,20.242 L72.067766,20.242 L72.067766,11.368 C72.067766,11.2906667 72.1064327,11.252 72.183766,11.252 L72.183766,11.252 L77.113766,11.252 C77.171766,11.252 77.2104327,11.281 77.229766,11.339 L77.229766,11.339 L81.492766,20.329 C81.550766,20.4643333 81.666766,20.532 81.840766,20.532 L81.840766,20.532 L83.377766,20.532 C83.5324327,20.532 83.609766,20.4643333 83.609766,20.329 C83.609766,20.271 83.6000993,20.2226667 83.580766,20.184 L83.580766,20.184 L79.230766,11.252 C79.1920993,11.194 79.2114327,11.1456667 79.288766,11.107 C80.5454327,10.8363333 81.5410993,10.2273333 82.275766,9.28 C83.0104327,8.33266667 83.377766,7.18233333 83.377766,5.829 C83.377766,4.16633333 82.8654327,2.81783333 81.840766,1.7835 C80.8160993,0.749166667 79.4724327,0.232 77.809766,0.232 L77.809766,0.232 L70.298766,0.232 C70.1054327,0.232 70.008766,0.328666667 70.008766,0.522 L70.008766,0.522 L70.008766,20.242 C70.008766,20.4353333 70.1054327,20.532 70.298766,20.532 L70.298766,20.532 L71.777766,20.532 Z M77.577766,9.599 L72.183766,9.599 C72.1064327,9.599 72.067766,9.56033333 72.067766,9.483 L72.067766,9.483 L72.067766,2.146 C72.067766,2.06866667 72.1064327,2.03 72.183766,2.03 L72.183766,2.03 L77.577766,2.03 C78.6990993,2.03 79.607766,2.38283333 80.303766,3.0885 C80.999766,3.79416667 81.347766,4.70766667 81.347766,5.829 C81.347766,6.95033333 80.999766,7.859 80.303766,8.555 C79.607766,9.251 78.6990993,9.599 77.577766,9.599 L77.577766,9.599 Z M106.056688,20.532 C106.250021,20.532 106.346688,20.4353333 106.346688,20.242 L106.346688,20.242 L106.346688,19.024 C106.346688,18.8306667 106.250021,18.734 106.056688,18.734 L106.056688,18.734 L95.384688,18.734 C95.3073547,18.734 95.268688,18.6953333 95.268688,18.618 L95.268688,18.618 L95.268688,11.339 C95.268688,11.2616667 95.3073547,11.223 95.384688,11.223 L95.384688,11.223 L102.866688,11.223 C103.060021,11.223 103.156688,11.1263333 103.156688,10.933 L103.156688,10.933 L103.156688,9.715 C103.156688,9.52166667 103.060021,9.425 102.866688,9.425 L102.866688,9.425 L95.384688,9.425 C95.3073547,9.425 95.268688,9.38633333 95.268688,9.309 L95.268688,9.309 L95.268688,2.146 C95.268688,2.06866667 95.3073547,2.03 95.384688,2.03 L95.384688,2.03 L106.056688,2.03 C106.250021,2.03 106.346688,1.93333333 106.346688,1.74 L106.346688,1.74 L106.346688,0.522 C106.346688,0.328666667 106.250021,0.232 106.056688,0.232 L106.056688,0.232 L93.499688,0.232 C93.3063547,0.232 93.209688,0.328666667 93.209688,0.522 L93.209688,0.522 L93.209688,20.242 C93.209688,20.4353333 93.3063547,20.532 93.499688,20.532 L93.499688,20.532 L106.056688,20.532 Z" id="ENTRE" fill="#FFFFFF"></path>
                        <path d="M117.97661,20.532 C118.169943,20.532 118.26661,20.4353333 118.26661,20.242 L118.26661,20.242 L118.23761,4.263 C118.23761,4.205 118.256943,4.17116667 118.29561,4.1615 C118.334277,4.15183333 118.363277,4.176 118.38261,4.234 L118.38261,4.234 L128.27161,20.329 C128.368277,20.4643333 128.484277,20.532 128.61961,20.532 L128.61961,20.532 L130.06961,20.532 C130.262943,20.532 130.35961,20.4353333 130.35961,20.242 L130.35961,20.242 L130.35961,0.522 C130.35961,0.328666667 130.262943,0.232 130.06961,0.232 L130.06961,0.232 L128.59061,0.232 C128.397277,0.232 128.30061,0.328666667 128.30061,0.522 L128.30061,0.522 L128.32961,16.501 C128.32961,16.559 128.310277,16.5928333 128.27161,16.6025 C128.232943,16.6121667 128.203943,16.588 128.18461,16.53 L128.18461,16.53 L118.29561,0.435 C118.198943,0.299666667 118.082943,0.232 117.94761,0.232 L117.94761,0.232 L116.49761,0.232 C116.304277,0.232 116.20761,0.328666667 116.20761,0.522 L116.20761,0.522 L116.20761,20.242 C116.20761,20.4353333 116.304277,20.532 116.49761,20.532 L116.49761,20.532 L117.97661,20.532 Z M147.528532,20.764 C148.901199,20.764 150.114365,20.4836667 151.168032,19.923 C152.221699,19.3623333 153.033699,18.5745 153.604032,17.5595 C154.174365,16.5445 154.459532,15.37 154.459532,14.036 L154.459532,14.036 L154.459532,6.728 C154.459532,5.394 154.174365,4.2195 153.604032,3.2045 C153.033699,2.1895 152.221699,1.40166667 151.168032,0.841 C150.114365,0.280333333 148.901199,-3.92574862e-13 147.528532,-3.92574862e-13 C146.155865,-3.92574862e-13 144.947532,0.280333333 143.903532,0.841 C142.859532,1.40166667 142.052365,2.1895 141.482032,3.2045 C140.911699,4.2195 140.626532,5.394 140.626532,6.728 L140.626532,6.728 L140.626532,14.036 C140.626532,15.37 140.911699,16.5445 141.482032,17.5595 C142.052365,18.5745 142.859532,19.3623333 143.903532,19.923 C144.947532,20.4836667 146.155865,20.764 147.528532,20.764 Z M147.528532,18.995 C146.078532,18.995 144.908865,18.5503333 144.019532,17.661 C143.130199,16.7716667 142.685532,15.5923333 142.685532,14.123 L142.685532,14.123 L142.685532,6.699 C142.685532,5.22966667 143.130199,4.0455 144.019532,3.1465 C144.908865,2.2475 146.078532,1.798 147.528532,1.798 C148.997865,1.798 150.177199,2.2475 151.066532,3.1465 C151.955865,4.0455 152.400532,5.22966667 152.400532,6.699 L152.400532,6.699 L152.400532,14.123 C152.400532,15.5923333 151.955865,16.7716667 151.066532,17.661 C150.177199,18.5503333 148.997865,18.995 147.528532,18.995 Z M171.425454,20.764 C172.798121,20.764 174.006454,20.4933333 175.050454,19.952 C176.094454,19.4106667 176.901621,18.6518333 177.471954,17.6755 C178.042287,16.6991667 178.327454,15.5633333 178.327454,14.268 L178.327454,14.268 L178.327454,0.522 C178.327454,0.328666667 178.230787,0.232 178.037454,0.232 L178.037454,0.232 L176.558454,0.232 C176.365121,0.232 176.268454,0.328666667 176.268454,0.522 L176.268454,0.522 L176.268454,14.326 C176.268454,15.6986667 175.823787,16.8151667 174.934454,17.6755 C174.045121,18.5358333 172.875454,18.966 171.425454,18.966 C169.975454,18.966 168.805787,18.5358333 167.916454,17.6755 C167.027121,16.8151667 166.582454,15.6986667 166.582454,14.326 L166.582454,14.326 L166.582454,0.522 C166.582454,0.328666667 166.485787,0.232 166.292454,0.232 L166.292454,0.232 L164.813454,0.232 C164.620121,0.232 164.523454,0.328666667 164.523454,0.522 L164.523454,0.522 L164.523454,14.268 C164.523454,15.5633333 164.813454,16.6991667 165.393454,17.6755 C165.973454,18.6518333 166.785454,19.4106667 167.829454,19.952 C168.873454,20.4933333 170.072121,20.764 171.425454,20.764 Z M194.858376,20.764 C196.985043,20.764 198.647709,20.2806667 199.846376,19.314 C201.045043,18.3473333 201.644376,17.052 201.644376,15.428 C201.644376,14.384 201.378543,13.4995 200.846876,12.7745 C200.315209,12.0495 199.619209,11.4356667 198.758876,10.933 C197.898543,10.4303333 196.762709,9.889 195.351376,9.309 C193.959376,8.76766667 192.929876,8.32783333 192.262876,7.9895 C191.595876,7.65116667 191.083543,7.25483333 190.725876,6.8005 C190.368209,6.34616667 190.189376,5.771 190.189376,5.075 C190.189376,4.01166667 190.556709,3.19966667 191.291376,2.639 C192.026043,2.07833333 193.079709,1.798 194.452376,1.798 C196.018376,1.798 197.241209,2.15566667 198.120876,2.871 C199.000543,3.58633333 199.440376,4.50466667 199.440376,5.626 L199.440376,5.626 L199.440376,6.148 C199.440376,6.34133333 199.537043,6.438 199.730376,6.438 L199.730376,6.438 L201.180376,6.438 C201.373709,6.438 201.470376,6.34133333 201.470376,6.148 L201.470376,6.148 L201.470376,5.51 C201.470376,3.84733333 200.851709,2.51333333 199.614376,1.508 C198.377043,0.502666667 196.685376,-3.92574862e-13 194.539376,-3.92574862e-13 C192.567376,-3.92574862e-13 191.015876,0.4495 189.884876,1.3485 C188.753876,2.2475 188.188376,3.509 188.188376,5.133 C188.188376,6.177 188.434876,7.04216667 188.927876,7.7285 C189.420876,8.41483333 190.068543,8.9755 190.870876,9.4105 C191.673209,9.8455 192.799376,10.353 194.249376,10.933 C195.602709,11.4936667 196.651543,11.9866667 197.395876,12.412 C198.140209,12.8373333 198.691209,13.2916667 199.048876,13.775 C199.406543,14.2583333 199.585376,14.8383333 199.585376,15.515 C199.585376,16.559 199.198709,17.3951667 198.425376,18.0235 C197.652043,18.6518333 196.521043,18.966 195.032376,18.966 C193.389043,18.966 192.103376,18.6228333 191.175376,17.9365 C190.247376,17.2501667 189.783376,16.3463333 189.783376,15.225 L189.783376,15.225 L189.783376,14.442 C189.783376,14.2486667 189.686709,14.152 189.493376,14.152 L189.493376,14.152 L188.072376,14.152 C187.879043,14.152 187.782376,14.2486667 187.782376,14.442 L187.782376,14.442 L187.782376,15.341 C187.782376,16.9843333 188.415543,18.299 189.681876,19.285 C190.948209,20.271 192.673709,20.764 194.858376,20.764 Z" id="NOUS" fill="#B8995A"></path>
                    </g>
                    <path d="M47.36,48.688 L48.368,45.488 L52.176,45.488 L53.168,48.688 L54.576,48.688 L51.04,38.192 L49.536,38.192 L46,48.688 L47.36,48.688 Z M51.84,44.416 L48.704,44.416 L49.2,42.816 C49.3813333,42.2293333 49.5573333,41.6453333 49.728,41.064 C49.8986667,40.4826667 50.0693333,39.888 50.24,39.28 L50.24,39.28 L50.304,39.28 C50.464,39.888 50.632,40.4826667 50.808,41.064 C50.984,41.6453333 51.1626667,42.2293333 51.344,42.816 L51.344,42.816 L51.84,44.416 Z M65.2473,48.688 L65.2473,47.552 L59.9353,47.552 L59.9353,43.744 L64.2873,43.744 L64.2873,42.608 L59.9353,42.608 L59.9353,39.312 L65.0873,39.312 L65.0873,38.192 L58.5913,38.192 L58.5913,48.688 L65.2473,48.688 Z M72.9266,48.88 C73.5026,48.88 74.0199333,48.8026667 74.4786,48.648 C74.9372667,48.4933333 75.3266,48.28 75.6466,48.008 C75.9666,47.736 76.2119333,47.4186667 76.3826,47.056 C76.5532667,46.6933333 76.6386,46.304 76.6386,45.888 C76.6386,45.504 76.5772667,45.1653333 76.4546,44.872 C76.3319333,44.5786667 76.1666,44.3226667 75.9586,44.104 C75.7506,43.8853333 75.5052667,43.6933333 75.2226,43.528 C74.9399333,43.3626667 74.6386,43.216 74.3186,43.088 L74.3186,43.088 L72.8466,42.448 L72.8466,42.448 L72.1746,42.16 C71.9506,42.064 71.7506,41.9493333 71.5746,41.816 C71.3986,41.6826667 71.2546,41.528 71.1426,41.352 C71.0306,41.176 70.9746,40.96 70.9746,40.704 C70.9746,40.224 71.1612667,39.848 71.5346,39.576 C71.9079333,39.304 72.3986,39.168 73.0066,39.168 C73.5506,39.168 74.0306,39.256 74.4466,39.432 C74.8626,39.608 75.2412667,39.8506667 75.5826,40.16 L75.5826,40.16 L76.2866,39.296 C75.9026,38.912 75.4332667,38.6 74.8786,38.36 C74.3239333,38.12 73.7159333,38 73.0546,38 C72.5532667,38 72.0919333,38.0693333 71.6706,38.208 C71.2492667,38.3466667 70.8866,38.5413333 70.5826,38.792 C70.2786,39.0426667 70.0412667,39.3386667 69.8706,39.68 C69.6999333,40.0213333 69.6146,40.3893333 69.6146,40.784 C69.6146,41.168 69.6839333,41.5066667 69.8226,41.8 C69.9612667,42.0933333 70.1399333,42.3466667 70.3586,42.56 C70.5772667,42.7733333 70.8199333,42.9546667 71.0866,43.104 C71.3532667,43.2533333 71.6199333,43.3813333 71.8866,43.488 L71.8866,43.488 L73.3906,44.144 C73.6572667,44.2613333 73.9052667,44.3733333 74.1346,44.48 C74.3639333,44.5866667 74.5639333,44.7093333 74.7346,44.848 C74.9052667,44.9866667 75.0386,45.152 75.1346,45.344 C75.2306,45.536 75.2786,45.7706667 75.2786,46.048 C75.2786,46.5386667 75.0786,46.9386667 74.6786,47.248 C74.2786,47.5573333 73.7159333,47.712 72.9906,47.712 C72.3826,47.712 71.8172667,47.592 71.2946,47.352 C70.7719333,47.112 70.3132667,46.7946667 69.9186,46.4 L69.9186,46.4 L69.1186,47.328 C69.5986,47.808 70.1612667,48.1866667 70.8066,48.464 C71.4519333,48.7413333 72.1586,48.88 72.9266,48.88 Z M84.7979,48.688 L84.7979,39.312 L88.2539,39.312 L88.2539,38.192 L79.9979,38.192 L79.9979,39.312 L83.4539,39.312 L83.4539,48.688 L84.7979,48.688 Z M93.2132,48.688 L93.2132,43.744 L97.5972,43.744 L97.5972,48.688 L98.9412,48.688 L98.9412,38.192 L97.5972,38.192 L97.5972,42.592 L93.2132,42.592 L93.2132,38.192 L91.8692,38.192 L91.8692,48.688 L93.2132,48.688 Z M110.3645,48.688 L110.3645,47.552 L105.0525,47.552 L105.0525,43.744 L109.4045,43.744 L109.4045,42.608 L105.0525,42.608 L105.0525,39.312 L110.2045,39.312 L110.2045,38.192 L103.7085,38.192 L103.7085,48.688 L110.3645,48.688 Z M118.6358,48.688 L118.6358,39.312 L122.0918,39.312 L122.0918,38.192 L113.8358,38.192 L113.8358,39.312 L117.2918,39.312 L117.2918,48.688 L118.6358,48.688 Z M132.5231,48.688 L132.5231,47.552 L129.9151,47.552 L129.9151,39.312 L132.5231,39.312 L132.5231,38.192 L125.9631,38.192 L125.9631,39.312 L128.5711,39.312 L128.5711,47.552 L125.9631,47.552 L125.9631,48.688 L132.5231,48.688 Z M141.3384,48.88 C142.0424,48.88 142.655733,48.7466667 143.1784,48.48 C143.701067,48.2133333 144.1704,47.84 144.5864,47.36 L144.5864,47.36 L143.8344,46.544 C143.493067,46.9173333 143.133067,47.2053333 142.7544,47.408 C142.375733,47.6106667 141.9464,47.712 141.4664,47.712 C140.965067,47.712 140.509067,47.6106667 140.0984,47.408 C139.687733,47.2053333 139.3384,46.9173333 139.0504,46.544 C138.7624,46.1706667 138.5384,45.72 138.3784,45.192 C138.2184,44.664 138.1384,44.0693333 138.1384,43.408 C138.1384,42.7573333 138.2184,42.1706667 138.3784,41.648 C138.5384,41.1253333 138.7624,40.68 139.0504,40.312 C139.3384,39.944 139.687733,39.6613333 140.0984,39.464 C140.509067,39.2666667 140.965067,39.168 141.4664,39.168 C141.9144,39.168 142.309067,39.256 142.6504,39.432 C142.991733,39.608 143.301067,39.84 143.5784,40.128 L143.5784,40.128 L144.3304,39.28 C144.021067,38.9386667 143.623733,38.64 143.1384,38.384 C142.653067,38.128 142.095733,38 141.4664,38 C140.783733,38 140.1544,38.1253333 139.5784,38.376 C139.0024,38.6266667 138.5064,38.9866667 138.0904,39.456 C137.6744,39.9253333 137.349067,40.496 137.1144,41.168 C136.879733,41.84 136.7624,42.5973333 136.7624,43.44 C136.7624,44.2933333 136.879733,45.0586667 137.1144,45.736 C137.349067,46.4133333 137.671733,46.984 138.0824,47.448 C138.493067,47.912 138.975733,48.2666667 139.5304,48.512 C140.085067,48.7573333 140.687733,48.88 141.3384,48.88 Z M151.8817,48.88 C152.4577,48.88 152.975033,48.8026667 153.4337,48.648 C153.892367,48.4933333 154.2817,48.28 154.6017,48.008 C154.9217,47.736 155.167033,47.4186667 155.3377,47.056 C155.508367,46.6933333 155.5937,46.304 155.5937,45.888 C155.5937,45.504 155.532367,45.1653333 155.4097,44.872 C155.287033,44.5786667 155.1217,44.3226667 154.9137,44.104 C154.7057,43.8853333 154.460367,43.6933333 154.1777,43.528 C153.895033,43.3626667 153.5937,43.216 153.2737,43.088 L153.2737,43.088 L151.8017,42.448 L151.8017,42.448 L151.1297,42.16 C150.9057,42.064 150.7057,41.9493333 150.5297,41.816 C150.3537,41.6826667 150.2097,41.528 150.0977,41.352 C149.9857,41.176 149.9297,40.96 149.9297,40.704 C149.9297,40.224 150.116367,39.848 150.4897,39.576 C150.863033,39.304 151.3537,39.168 151.9617,39.168 C152.5057,39.168 152.9857,39.256 153.4017,39.432 C153.8177,39.608 154.196367,39.8506667 154.5377,40.16 L154.5377,40.16 L155.2417,39.296 C154.8577,38.912 154.388367,38.6 153.8337,38.36 C153.279033,38.12 152.671033,38 152.0097,38 C151.508367,38 151.047033,38.0693333 150.6257,38.208 C150.204367,38.3466667 149.8417,38.5413333 149.5377,38.792 C149.2337,39.0426667 148.996367,39.3386667 148.8257,39.68 C148.655033,40.0213333 148.5697,40.3893333 148.5697,40.784 C148.5697,41.168 148.639033,41.5066667 148.7777,41.8 C148.916367,42.0933333 149.095033,42.3466667 149.3137,42.56 C149.532367,42.7733333 149.775033,42.9546667 150.0417,43.104 C150.308367,43.2533333 150.575033,43.3813333 150.8417,43.488 L150.8417,43.488 L152.3457,44.144 C152.612367,44.2613333 152.860367,44.3733333 153.0897,44.48 C153.319033,44.5866667 153.519033,44.7093333 153.6897,44.848 C153.860367,44.9866667 153.9937,45.152 154.0897,45.344 C154.1857,45.536 154.2337,45.7706667 154.2337,46.048 C154.2337,46.5386667 154.0337,46.9386667 153.6337,47.248 C153.2337,47.5573333 152.671033,47.712 151.9457,47.712 C151.3377,47.712 150.772367,47.592 150.2497,47.352 C149.727033,47.112 149.268367,46.7946667 148.8737,46.4 L148.8737,46.4 L148.0737,47.328 C148.5537,47.808 149.116367,48.1866667 149.7617,48.464 C150.407033,48.7413333 151.1137,48.88 151.8817,48.88 Z" id="AESTHETICS" fill="#A6A7A9"></path>
                </g>
            </g>
        </g>
    </g>
</svg>